<svg xmlns="http://www.w3.org/2000/svg" xmlns:xlink="http://www.w3.org/1999/xlink" x="0" y="0" viewBox="0 0 128 128"><path fill="#fff" d="M69,77.1c-3.2,1.2-6.8,1.2-10.1,0L8.7,57.7c-3.4-1.3-3.4-6.2,0-7.5L59,30.9c3.2-1.2,6.8-1.2,10.1,0l50.3,19.3 c1.8,0.7,2.8,2.3,2.7,3.9l0,2.1L69,77.1z"/><path fill="#444b54" d="M120.4,47.5L70.1,28.1c-3.9-1.5-8.3-1.5-12.2,0L7.6,47.5c-2.7,1-4.5,3.6-4.5,6.5s1.8,5.5,4.5,6.5L21,65.7V89 c0,20.4,23,23,43,23s43-2.6,43-23l0-19.5c0-2.3-1.1-4.5-3-5.8c-1.9-1.3-4.3-1.6-6.5-0.8L67.9,74.3c-2.5,1-5.4,1-7.9,0L9.8,54.9 c-0.5-0.2-0.6-0.6-0.6-0.9s0.1-0.7,0.6-0.9l50.3-19.3c2.5-1,5.4-1,7.9,0l50.3,19.3c0.6,0.2,0.8,0.7,0.8,1c0,0.1,0,0.1,0,0.2V69 c0,1.7,1.3,3,3,3s3-1.3,3-3V54.3C125.1,51.3,123.3,48.6,120.4,47.5z"/><path fill="#444b54" d="M122,92c-1.7,0-3-1.3-3-3v-5c0-1.7,1.3-3,3-3s3,1.3,3,3v5C125,90.7,123.7,92,122,92z"/></svg>