<svg xmlns="http://www.w3.org/2000/svg" xmlns:xlink="http://www.w3.org/1999/xlink" viewBox="0 0 100 100"><path fill="#fefdef" d="M78.118,14.882l-46.341-0.005c-3.557,0-6.47,3.849-6.47,7.005c0,0,0,21.5,0,38H24.95l-6.87-0.021c-0.008,0.333,0.004,19.208,0.033,19.508c0.603,6.208,8.689,5.513,8.689,5.513h6.794l45.294,0c3.355,0.219,3.418-6.667,3.418-6.667V21.882l0,0h5.013C87.539,14.409,78.118,14.882,78.118,14.882z"/><path fill="#fef6aa" d="M25.307,59.882l-7.11-0.025c-0.006,0.32,0.003,18.443,0.026,18.731c0.479,5.961,6.898,5.294,6.898,5.294l0.185,0V59.882z"/><path fill="#1f212b" d="M24.704,82.425c-0.344,0-0.679-0.178-0.865-0.496c-0.278-0.478-0.117-1.09,0.36-1.368c0.421-0.245,0.443-0.928,0.427-1.729c-0.025-1.467-0.302-54.686-0.298-56.95c0-3.628,3.698-7.812,7.854-7.812l46.418-0.188c0.166-0.007,5.252-0.231,8.194,2.649c1.396,1.368,2.072,3.178,2.007,5.38c-0.016,0.541-0.458,0.971-1,0.971H52.307c-0.552,0-1-0.447-1-1s0.448-1,1-1h34.46c-0.129-1.186-0.582-2.147-1.372-2.921c-2.323-2.275-6.702-2.086-6.745-2.08l-46.452-0.005c-2.912,0-6.1,3.354-6.1,6.006c-0.001,0.557,0.081,55.399,0.104,56.75c0.02,1.016,0.473,2.8-0.997,3.657C25.048,82.381,24.874,82.425,24.704,82.425z"/><path fill="#1f212b" d="M25.995 85.715c-3.209 0-8.062-1.013-8.562-6.167-.039-.391-.066-19.511-.063-19.688.012-.543.457-.978 1-.978 0 0 .002 0 .003 0l6.938.021c.552.002.999.45.997 1.003-.001.552-.449.997-1 .997-.001 0-.002 0-.003 0l-5.947-.018c-.047 3.857-.211 17.792-.19 18.438.498 5.112 7.307 4.583 7.597 4.562l52.129-.004c.4.016.674-.075.937-.318 1.176-1.092 1.468-4.311 1.478-5.352v-56.33c0-.553.448-1 1-1s1 .447 1 1v56.339c-.004.508-.103 4.938-2.117 6.809-.661.613-1.479.906-2.363.851L26.89 85.694C26.605 85.719 26.326 85.715 25.995 85.715zM47.307 22.882h-4c-.552 0-1-.447-1-1s.448-1 1-1h4c.552 0 1 .447 1 1S47.859 22.882 47.307 22.882zM39.307 22.882h-2c-.552 0-1-.447-1-1s.448-1 1-1h2c.552 0 1 .447 1 1S39.859 22.882 39.307 22.882zM43.807 37.882h-10c-.276 0-.5-.224-.5-.5s.224-.5.5-.5h10c.276 0 .5.224.5.5S44.083 37.882 43.807 37.882z"/><path fill="#1f212b" d="M61.807 37.882h-16c-.276 0-.5-.224-.5-.5s.224-.5.5-.5h16c.276 0 .5.224.5.5S62.083 37.882 61.807 37.882zM60.807 43.882h-27c-.276 0-.5-.224-.5-.5s.224-.5.5-.5h27c.276 0 .5.224.5.5S61.083 43.882 60.807 43.882zM60.807 49.882h-27c-.276 0-.5-.224-.5-.5s.224-.5.5-.5h27c.276 0 .5.224.5.5S61.083 49.882 60.807 49.882zM49.807 55.882h-16c-.276 0-.5-.224-.5-.5s.224-.5.5-.5h16c.276 0 .5.224.5.5S50.083 55.882 49.807 55.882z"/><g><path fill="#1f212b" d="M55.807 32.882h-7c-.276 0-.5-.224-.5-.5s.224-.5.5-.5h7c.276 0 .5.224.5.5S56.083 32.882 55.807 32.882zM61.807 32.882h-4c-.276 0-.5-.224-.5-.5s.224-.5.5-.5h4c.276 0 .5.224.5.5S62.083 32.882 61.807 32.882zM46.807 32.882h-13c-.276 0-.5-.224-.5-.5s.224-.5.5-.5h13c.276 0 .5.224.5.5S47.083 32.882 46.807 32.882z"/></g><g><path fill="#1f212b" d="M47.807,70.882h-14c-0.276,0-0.5-0.224-0.5-0.5s0.224-0.5,0.5-0.5h14c0.276,0,0.5,0.224,0.5,0.5S48.083,70.882,47.807,70.882z"/></g><g><path fill="#f37e98" d="M75.807 67.637L75.807 22.382 68.807 22.382 68.807 67.857 68.807 87.388 72.459 84.535 75.807 87.388z"/><path fill="#1f212b" d="M75.807,87.884c-0.116,0-0.23-0.04-0.322-0.118l-3.04-2.591l-3.333,2.604c-0.15,0.117-0.353,0.138-0.522,0.056c-0.17-0.084-0.279-0.257-0.279-0.446V22.382c0-0.274,0.222-0.496,0.496-0.496h7c0.274,0,0.496,0.222,0.496,0.496v65.006c0,0.193-0.112,0.369-0.288,0.45C75.949,87.869,75.878,87.884,75.807,87.884z M69.303,22.878v63.493l2.851-2.227c0.186-0.146,0.447-0.139,0.627,0.013l2.53,2.156V22.878H69.303z"/></g><g><path fill="#f9e65c" d="M72.307 67.382A6.5 6.5 0 1 0 72.307 80.382A6.5 6.5 0 1 0 72.307 67.382Z"/><path fill="#1f212b" d="M72.307,80.878c-3.857,0-6.996-3.139-6.996-6.996s3.139-6.996,6.996-6.996s6.996,3.139,6.996,6.996S76.165,80.878,72.307,80.878z M72.307,67.878c-3.311,0-6.004,2.693-6.004,6.004s2.693,6.004,6.004,6.004s6.004-2.693,6.004-6.004S75.618,67.878,72.307,67.878z"/></g></svg>